<svg width="91" height="35" viewBox="0 0 91 35" fill="none" xmlns="http://www.w3.org/2000/svg">
<path d="M26.784 7.984H30.828V9.496H26.784V7.984ZM26.928 11.44H31.5V13H24.996V4.6H31.344V6.16H26.928V11.44ZM32.9148 13V4.096H34.7868V13H32.9148ZM39.7282 13.096C38.9922 13.096 38.3442 12.952 37.7842 12.664C37.2322 12.376 36.8042 11.984 36.5002 11.488C36.1962 10.984 36.0442 10.412 36.0442 9.772C36.0442 9.124 36.1922 8.552 36.4882 8.056C36.7922 7.552 37.2042 7.16 37.7242 6.88C38.2442 6.592 38.8322 6.448 39.4882 6.448C40.1202 6.448 40.6882 6.584 41.1922 6.856C41.7042 7.12 42.1082 7.504 42.4042 8.008C42.7002 8.504 42.8482 9.1 42.8482 9.796C42.8482 9.868 42.8442 9.952 42.8362 10.048C42.8282 10.136 42.8202 10.22 42.8122 10.3H37.5682V9.208H41.8282L41.1082 9.532C41.1082 9.196 41.0402 8.904 40.9042 8.656C40.7682 8.408 40.5802 8.216 40.3402 8.08C40.1002 7.936 39.8202 7.864 39.5002 7.864C39.1802 7.864 38.8962 7.936 38.6482 8.08C38.4082 8.216 38.2202 8.412 38.0842 8.668C37.9482 8.916 37.8802 9.212 37.8802 9.556V9.844C37.8802 10.196 37.9562 10.508 38.1082 10.78C38.2682 11.044 38.4882 11.248 38.7682 11.392C39.0562 11.528 39.3922 11.596 39.7762 11.596C40.1202 11.596 40.4202 11.544 40.6762 11.44C40.9402 11.336 41.1802 11.18 41.3962 10.972L42.3922 12.052C42.0962 12.388 41.7242 12.648 41.2762 12.832C40.8282 13.008 40.3122 13.096 39.7282 13.096ZM46.7345 13.096C45.9745 13.096 45.3825 12.904 44.9585 12.52C44.5345 12.128 44.3225 11.548 44.3225 10.78V5.116H46.1945V10.756C46.1945 11.028 46.2665 11.24 46.4105 11.392C46.5545 11.536 46.7505 11.608 46.9985 11.608C47.2945 11.608 47.5465 11.528 47.7545 11.368L48.2585 12.688C48.0665 12.824 47.8345 12.928 47.5625 13C47.2985 13.064 47.0225 13.096 46.7345 13.096ZM43.3265 8.128V6.688H47.8025V8.128H43.3265ZM49.3093 13V6.544H51.0973V8.368L50.8453 7.84C51.0373 7.384 51.3453 7.04 51.7693 6.808C52.1933 6.568 52.7093 6.448 53.3173 6.448V8.176C53.2373 8.168 53.1653 8.164 53.1013 8.164C53.0373 8.156 52.9693 8.152 52.8973 8.152C52.3853 8.152 51.9693 8.3 51.6493 8.596C51.3373 8.884 51.1813 9.336 51.1813 9.952V13H49.3093ZM54.4421 13V6.544H56.3141V13H54.4421ZM55.3781 5.644C55.0341 5.644 54.7541 5.544 54.5381 5.344C54.3221 5.144 54.2141 4.896 54.2141 4.6C54.2141 4.304 54.3221 4.056 54.5381 3.856C54.7541 3.656 55.0341 3.556 55.3781 3.556C55.7221 3.556 56.0021 3.652 56.2181 3.844C56.4341 4.028 56.5421 4.268 56.5421 4.564C56.5421 4.876 56.4341 5.136 56.2181 5.344C56.0101 5.544 55.7301 5.644 55.3781 5.644ZM61.1715 13.096C60.4755 13.096 59.8555 12.956 59.3115 12.676C58.7675 12.388 58.3395 11.992 58.0275 11.488C57.7235 10.984 57.5715 10.412 57.5715 9.772C57.5715 9.124 57.7235 8.552 58.0275 8.056C58.3395 7.552 58.7675 7.16 59.3115 6.88C59.8555 6.592 60.4755 6.448 61.1715 6.448C61.8515 6.448 62.4435 6.592 62.9475 6.88C63.4515 7.16 63.8235 7.564 64.0635 8.092L62.6115 8.872C62.4435 8.568 62.2315 8.344 61.9755 8.2C61.7275 8.056 61.4555 7.984 61.1595 7.984C60.8395 7.984 60.5515 8.056 60.2955 8.2C60.0395 8.344 59.8355 8.548 59.6835 8.812C59.5395 9.076 59.4675 9.396 59.4675 9.772C59.4675 10.148 59.5395 10.468 59.6835 10.732C59.8355 10.996 60.0395 11.2 60.2955 11.344C60.5515 11.488 60.8395 11.56 61.1595 11.56C61.4555 11.56 61.7275 11.492 61.9755 11.356C62.2315 11.212 62.4435 10.984 62.6115 10.672L64.0635 11.464C63.8235 11.984 63.4515 12.388 62.9475 12.676C62.4435 12.956 61.8515 13.096 61.1715 13.096ZM64.6253 13L66.3053 4.6H67.9133L71.5253 10.684L70.8893 10.648L72.0893 4.6H74.0093L72.3293 13H70.7333L67.1093 6.916L67.7573 6.952L66.5453 13H64.6253ZM77.1128 7.984H81.1568L80.8568 9.496H76.8128L77.1128 7.984ZM76.5608 11.44H81.1448L80.8208 13H74.3168L75.9968 4.6H82.3448L82.0208 6.16H77.6168L76.5608 11.44ZM84.1075 13L85.4635 6.184H82.7755L83.0995 4.6H90.4195L90.0955 6.184H87.4195L86.0515 13H84.1075Z" fill="#004600"/>
<path d="M2.00341 13.0026C1.81418 13.0032 1.62864 12.9502 1.46836 12.8496C1.30809 12.749 1.17964 12.605 1.09796 12.4343C1.01628 12.2636 0.984703 12.0732 1.00691 11.8853C1.02912 11.6973 1.10419 11.5196 1.22341 11.3726L11.1234 1.1726C11.1977 1.08689 11.2989 1.02896 11.4104 1.00834C11.5219 0.987714 11.6371 1.00562 11.7371 1.05911C11.8371 1.1126 11.916 1.1985 11.9607 1.30271C12.0055 1.40692 12.0135 1.52325 11.9834 1.6326L10.0634 7.6526C10.0068 7.80413 9.98778 7.96712 10.008 8.12761C10.0282 8.2881 10.0871 8.44129 10.1795 8.57403C10.2719 8.70678 10.3952 8.81512 10.5387 8.88976C10.6822 8.96441 10.8417 9.00313 11.0034 9.0026H18.0034C18.1926 9.00196 18.3782 9.05502 18.5385 9.15563C18.6987 9.25623 18.8272 9.40025 18.9089 9.57095C18.9905 9.74165 19.0221 9.93202 18.9999 10.1199C18.9777 10.3079 18.9026 10.4856 18.7834 10.6326L8.88341 20.8326C8.80915 20.9183 8.70795 20.9762 8.59643 20.9969C8.48491 21.0175 8.36969 20.9996 8.26968 20.9461C8.16967 20.8926 8.09083 20.8067 8.04607 20.7025C8.00132 20.5983 7.99333 20.482 8.02341 20.3726L9.94341 14.3526C10 14.2011 10.019 14.0381 9.99882 13.8776C9.9786 13.7171 9.91975 13.5639 9.82732 13.4312C9.73489 13.2984 9.61164 13.1901 9.46813 13.1154C9.32463 13.0408 9.16516 13.0021 9.00341 13.0026H2.00341Z" stroke="#004600" stroke-width="2" stroke-linecap="round" stroke-linejoin="round"/>
</svg>
