<?xml version="1.0" encoding="utf-8"?>
<svg xmlns="http://www.w3.org/2000/svg" viewBox="237.989 179.282 98.96 32.611">
  <path d="M 268.391 187.267 L 272.435 187.267 L 272.435 188.779 L 268.391 188.779 L 268.391 187.267 Z M 268.535 190.723 L 273.107 190.723 L 273.107 192.283 L 266.603 192.283 L 266.603 183.883 L 272.951 183.883 L 272.951 185.443 L 268.535 185.443 L 268.535 190.723 Z M 274.521 192.283 L 274.521 183.379 L 276.393 183.379 L 276.393 192.283 L 274.521 192.283 Z M 281.335 192.379 C 280.599 192.379 279.951 192.235 279.391 191.947 C 278.839 191.659 278.411 191.267 278.107 190.771 C 277.803 190.267 277.651 189.695 277.651 189.055 C 277.651 188.407 277.799 187.835 278.095 187.339 C 278.399 186.835 278.811 186.443 279.331 186.163 C 279.851 185.875 280.439 185.731 281.095 185.731 C 281.727 185.731 282.295 185.867 282.799 186.139 C 283.311 186.403 283.715 186.787 284.011 187.291 C 284.307 187.787 284.455 188.383 284.455 189.079 C 284.455 189.151 284.451 189.235 284.443 189.331 C 284.435 189.419 284.427 189.503 284.419 189.583 L 279.175 189.583 L 279.175 188.491 L 283.435 188.491 L 282.715 188.815 C 282.715 188.479 282.647 188.187 282.511 187.939 C 282.375 187.691 282.187 187.499 281.947 187.363 C 281.707 187.219 281.427 187.147 281.107 187.147 C 280.787 187.147 280.503 187.219 280.255 187.363 C 280.015 187.499 279.827 187.695 279.691 187.951 C 279.555 188.199 279.487 188.495 279.487 188.839 L 279.487 189.127 C 279.487 189.479 279.563 189.791 279.715 190.063 C 279.875 190.327 280.095 190.531 280.375 190.675 C 280.663 190.811 280.999 190.879 281.383 190.879 C 281.727 190.879 282.027 190.827 282.283 190.723 C 282.547 190.619 282.787 190.463 283.003 190.255 L 283.999 191.335 C 283.703 191.671 283.331 191.931 282.883 192.115 C 282.435 192.291 281.919 192.379 281.335 192.379 Z M 288.341 192.379 C 287.581 192.379 286.989 192.187 286.565 191.803 C 286.141 191.411 285.929 190.831 285.929 190.063 L 285.929 184.399 L 287.801 184.399 L 287.801 190.039 C 287.801 190.311 287.873 190.523 288.017 190.675 C 288.161 190.819 288.357 190.891 288.605 190.891 C 288.901 190.891 289.153 190.811 289.361 190.651 L 289.865 191.971 C 289.673 192.107 289.441 192.211 289.169 192.283 C 288.905 192.347 288.629 192.379 288.341 192.379 Z M 284.933 187.411 L 284.933 185.971 L 289.409 185.971 L 289.409 187.411 L 284.933 187.411 Z M 290.916 192.283 L 290.916 185.827 L 292.704 185.827 L 292.704 187.651 L 292.452 187.123 C 292.644 186.667 292.952 186.323 293.376 186.091 C 293.8 185.851 294.316 185.731 294.924 185.731 L 294.924 187.459 C 294.844 187.451 294.772 187.447 294.708 187.447 C 294.644 187.439 294.576 187.435 294.504 187.435 C 293.992 187.435 293.576 187.583 293.256 187.879 C 292.944 188.167 292.788 188.619 292.788 189.235 L 292.788 192.283 L 290.916 192.283 Z M 296.049 192.283 L 296.049 185.827 L 297.921 185.827 L 297.921 192.283 L 296.049 192.283 Z M 296.985 184.927 C 296.641 184.927 296.361 184.827 296.145 184.627 C 295.929 184.427 295.821 184.179 295.821 183.883 C 295.821 183.587 295.929 183.339 296.145 183.139 C 296.361 182.939 296.641 182.839 296.985 182.839 C 297.329 182.839 297.609 182.935 297.825 183.127 C 298.041 183.311 298.149 183.551 298.149 183.847 C 298.149 184.159 298.041 184.419 297.825 184.627 C 297.617 184.827 297.337 184.927 296.985 184.927 Z M 302.778 192.379 C 302.082 192.379 301.462 192.239 300.918 191.959 C 300.374 191.671 299.946 191.275 299.634 190.771 C 299.33 190.267 299.178 189.695 299.178 189.055 C 299.178 188.407 299.33 187.835 299.634 187.339 C 299.946 186.835 300.374 186.443 300.918 186.163 C 301.462 185.875 302.082 185.731 302.778 185.731 C 303.458 185.731 304.05 185.875 304.554 186.163 C 305.058 186.443 305.43 186.847 305.67 187.375 L 304.218 188.155 C 304.05 187.851 303.838 187.627 303.582 187.483 C 303.334 187.339 303.062 187.267 302.766 187.267 C 302.446 187.267 302.158 187.339 301.902 187.483 C 301.646 187.627 301.442 187.831 301.29 188.095 C 301.146 188.359 301.074 188.679 301.074 189.055 C 301.074 189.431 301.146 189.751 301.29 190.015 C 301.442 190.279 301.646 190.483 301.902 190.627 C 302.158 190.771 302.446 190.843 302.766 190.843 C 303.062 190.843 303.334 190.775 303.582 190.639 C 303.838 190.495 304.05 190.267 304.218 189.955 L 305.67 190.747 C 305.43 191.267 305.058 191.671 304.554 191.959 C 304.05 192.239 303.458 192.379 302.778 192.379 Z M 306.232 192.283 L 307.912 183.883 L 309.52 183.883 L 313.132 189.967 L 312.496 189.931 L 313.696 183.883 L 315.616 183.883 L 313.936 192.283 L 312.34 192.283 L 308.716 186.199 L 309.364 186.235 L 308.152 192.283 L 306.232 192.283 Z M 318.719 187.267 L 322.763 187.267 L 322.463 188.779 L 318.419 188.779 L 318.719 187.267 Z M 318.167 190.723 L 322.751 190.723 L 322.427 192.283 L 315.923 192.283 L 317.603 183.883 L 323.951 183.883 L 323.627 185.443 L 319.223 185.443 L 318.167 190.723 Z M 325.714 192.283 L 327.07 185.467 L 324.382 185.467 L 324.706 183.883 L 332.026 183.883 L 331.702 185.467 L 329.026 185.467 L 327.658 192.283 L 325.714 192.283 Z" fill="#F5F5F5" style="stroke-width: 1px;"/>
  <path d="M 241.61 197.285 C 241.421 197.286 241.235 197.233 241.075 197.132 C 240.915 197.032 240.786 196.888 240.705 196.717 C 240.623 196.546 240.591 196.356 240.614 196.168 C 240.636 195.98 240.711 195.802 240.83 195.655 L 250.73 185.455 C 250.804 185.369 250.906 185.311 251.017 185.291 C 251.129 185.27 251.244 185.288 251.344 185.342 C 251.444 185.395 251.523 185.481 251.567 185.585 C 251.612 185.689 251.62 185.806 251.59 185.915 L 249.67 191.935 C 249.613 192.087 249.594 192.25 249.615 192.41 C 249.635 192.571 249.694 192.724 249.786 192.857 C 249.879 192.989 250.002 193.098 250.145 193.172 C 250.289 193.247 250.448 193.286 250.61 193.285 L 257.61 193.285 C 257.799 193.285 257.985 193.338 258.145 193.438 C 258.305 193.539 258.434 193.683 258.516 193.853 C 258.597 194.024 258.629 194.215 258.607 194.402 C 258.584 194.59 258.509 194.768 258.39 194.915 L 248.49 205.115 C 248.416 205.201 248.315 205.259 248.203 205.279 C 248.092 205.3 247.976 205.282 247.876 205.229 C 247.776 205.175 247.698 205.089 247.653 204.985 C 247.608 204.881 247.6 204.765 247.63 204.655 L 249.55 198.635 C 249.607 198.484 249.626 198.321 249.605 198.16 C 249.585 198 249.526 197.846 249.434 197.714 C 249.342 197.581 249.218 197.473 249.075 197.398 C 248.931 197.323 248.772 197.285 248.61 197.285 L 241.61 197.285 Z" stroke="#F5F5F5" stroke-width="2" stroke-linecap="round" stroke-linejoin="round" style="stroke-width: 2px;"/>
</svg>