<svg width="117" height="47" viewBox="0 0 117 47" fill="none" xmlns="http://www.w3.org/2000/svg">
<path d="M28.784 6.984H32.828V8.496H28.784V6.984ZM28.928 10.44H33.5V12H26.996V3.6H33.344V5.16H28.928V10.44ZM34.9148 12V3.096H36.7868V12H34.9148ZM41.7282 12.096C40.9922 12.096 40.3442 11.952 39.7842 11.664C39.2322 11.376 38.8042 10.984 38.5002 10.488C38.1962 9.984 38.0442 9.412 38.0442 8.772C38.0442 8.124 38.1922 7.552 38.4882 7.056C38.7922 6.552 39.2042 6.16 39.7242 5.88C40.2442 5.592 40.8322 5.448 41.4882 5.448C42.1202 5.448 42.6882 5.584 43.1922 5.856C43.7042 6.12 44.1082 6.504 44.4042 7.008C44.7002 7.504 44.8482 8.1 44.8482 8.796C44.8482 8.868 44.8442 8.952 44.8362 9.048C44.8282 9.136 44.8202 9.22 44.8122 9.3H39.5682V8.208H43.8282L43.1082 8.532C43.1082 8.196 43.0402 7.904 42.9042 7.656C42.7682 7.408 42.5802 7.216 42.3402 7.08C42.1002 6.936 41.8202 6.864 41.5002 6.864C41.1802 6.864 40.8962 6.936 40.6482 7.08C40.4082 7.216 40.2202 7.412 40.0842 7.668C39.9482 7.916 39.8802 8.212 39.8802 8.556V8.844C39.8802 9.196 39.9562 9.508 40.1082 9.78C40.2682 10.044 40.4882 10.248 40.7682 10.392C41.0562 10.528 41.3922 10.596 41.7762 10.596C42.1202 10.596 42.4202 10.544 42.6762 10.44C42.9402 10.336 43.1802 10.18 43.3962 9.972L44.3922 11.052C44.0962 11.388 43.7242 11.648 43.2762 11.832C42.8282 12.008 42.3122 12.096 41.7282 12.096ZM48.7345 12.096C47.9745 12.096 47.3825 11.904 46.9585 11.52C46.5345 11.128 46.3225 10.548 46.3225 9.78V4.116H48.1945V9.756C48.1945 10.028 48.2665 10.24 48.4105 10.392C48.5545 10.536 48.7505 10.608 48.9985 10.608C49.2945 10.608 49.5465 10.528 49.7545 10.368L50.2585 11.688C50.0665 11.824 49.8345 11.928 49.5625 12C49.2985 12.064 49.0225 12.096 48.7345 12.096ZM45.3265 7.128V5.688H49.8025V7.128H45.3265ZM51.3093 12V5.544H53.0973V7.368L52.8453 6.84C53.0373 6.384 53.3453 6.04 53.7693 5.808C54.1933 5.568 54.7093 5.448 55.3173 5.448V7.176C55.2373 7.168 55.1653 7.164 55.1013 7.164C55.0373 7.156 54.9693 7.152 54.8973 7.152C54.3853 7.152 53.9693 7.3 53.6493 7.596C53.3373 7.884 53.1813 8.336 53.1813 8.952V12H51.3093ZM56.4421 12V5.544H58.3141V12H56.4421ZM57.3781 4.644C57.0341 4.644 56.7541 4.544 56.5381 4.344C56.3221 4.144 56.2141 3.896 56.2141 3.6C56.2141 3.304 56.3221 3.056 56.5381 2.856C56.7541 2.656 57.0341 2.556 57.3781 2.556C57.7221 2.556 58.0021 2.652 58.2181 2.844C58.4341 3.028 58.5421 3.268 58.5421 3.564C58.5421 3.876 58.4341 4.136 58.2181 4.344C58.0101 4.544 57.7301 4.644 57.3781 4.644ZM63.1715 12.096C62.4755 12.096 61.8555 11.956 61.3115 11.676C60.7675 11.388 60.3395 10.992 60.0275 10.488C59.7235 9.984 59.5715 9.412 59.5715 8.772C59.5715 8.124 59.7235 7.552 60.0275 7.056C60.3395 6.552 60.7675 6.16 61.3115 5.88C61.8555 5.592 62.4755 5.448 63.1715 5.448C63.8515 5.448 64.4435 5.592 64.9475 5.88C65.4515 6.16 65.8235 6.564 66.0635 7.092L64.6115 7.872C64.4435 7.568 64.2315 7.344 63.9755 7.2C63.7275 7.056 63.4555 6.984 63.1595 6.984C62.8395 6.984 62.5515 7.056 62.2955 7.2C62.0395 7.344 61.8355 7.548 61.6835 7.812C61.5395 8.076 61.4675 8.396 61.4675 8.772C61.4675 9.148 61.5395 9.468 61.6835 9.732C61.8355 9.996 62.0395 10.2 62.2955 10.344C62.5515 10.488 62.8395 10.56 63.1595 10.56C63.4555 10.56 63.7275 10.492 63.9755 10.356C64.2315 10.212 64.4435 9.984 64.6115 9.672L66.0635 10.464C65.8235 10.984 65.4515 11.388 64.9475 11.676C64.4435 11.956 63.8515 12.096 63.1715 12.096ZM66.6253 12L68.3053 3.6H69.9133L73.5253 9.684L72.8893 9.648L74.0893 3.6H76.0093L74.3293 12H72.7333L69.1093 5.916L69.7573 5.952L68.5453 12H66.6253ZM79.1128 6.984H83.1568L82.8568 8.496H78.8128L79.1128 6.984ZM78.5608 10.44H83.1448L82.8208 12H76.3168L77.9968 3.6H84.3448L84.0208 5.16H79.6168L78.5608 10.44ZM86.1075 12L87.4635 5.184H84.7755L85.0995 3.6H92.4195L92.0955 5.184H89.4195L88.0515 12H86.1075Z" fill="#F5F5F5"/>
<path d="M29.39 26.12C28.8433 26.12 28.35 25.9867 27.91 25.72C27.4767 25.4467 27.1367 25.0567 26.89 24.55C26.6433 24.0433 26.52 23.4333 26.52 22.72C26.52 22.1933 26.59 21.72 26.73 21.3C26.8767 20.88 27.0833 20.5233 27.35 20.23C27.6167 19.93 27.9233 19.7033 28.27 19.55C28.6233 19.3967 29.01 19.32 29.43 19.32C29.8233 19.32 30.1733 19.4 30.48 19.56C30.7933 19.72 31.0433 19.91 31.23 20.13L30.78 20.64C30.6067 20.4533 30.4067 20.31 30.18 20.21C29.96 20.1033 29.7133 20.05 29.44 20.05C29.0333 20.05 28.6733 20.16 28.36 20.38C28.0533 20.5933 27.8133 20.9 27.64 21.3C27.4667 21.6933 27.38 22.16 27.38 22.7C27.38 23.2533 27.4633 23.73 27.63 24.13C27.7967 24.53 28.0367 24.84 28.35 25.06C28.6633 25.2733 29.03 25.38 29.45 25.38C29.7567 25.38 30.03 25.3233 30.27 25.21C30.5167 25.09 30.74 24.9167 30.94 24.69L31.38 25.18C31.12 25.48 30.83 25.7133 30.51 25.88C30.19 26.04 29.8167 26.12 29.39 26.12ZM33.4029 26.09C33.1962 26.09 33.0296 26.05 32.9029 25.97C32.7762 25.8833 32.6829 25.76 32.6229 25.6C32.5629 25.4333 32.5329 25.2333 32.5329 25V18.88H33.3529V25.06C33.3529 25.1933 33.3762 25.2867 33.4229 25.34C33.4696 25.3867 33.5262 25.41 33.5929 25.41C33.6196 25.41 33.6429 25.41 33.6629 25.41C33.6896 25.4033 33.7229 25.3967 33.7629 25.39L33.8829 26.01C33.8229 26.03 33.7529 26.0467 33.6729 26.06C33.5996 26.08 33.5096 26.09 33.4029 26.09ZM35.0817 26V21.14H35.9017V26H35.0817ZM35.4917 20.14C35.3317 20.14 35.1984 20.09 35.0917 19.99C34.9917 19.89 34.9417 19.76 34.9417 19.6C34.9417 19.44 34.9917 19.31 35.0917 19.21C35.1984 19.11 35.3317 19.06 35.4917 19.06C35.6517 19.06 35.7817 19.11 35.8817 19.21C35.9884 19.31 36.0417 19.44 36.0417 19.6C36.0417 19.76 35.9884 19.89 35.8817 19.99C35.7817 20.09 35.6517 20.14 35.4917 20.14ZM39.5127 26.12C39.0793 26.12 38.6827 26.02 38.3227 25.82C37.9693 25.6133 37.6893 25.3233 37.4827 24.95C37.276 24.57 37.1727 24.11 37.1727 23.57C37.1727 23.0433 37.2793 22.59 37.4927 22.21C37.706 21.83 37.9793 21.5367 38.3127 21.33C38.646 21.1233 38.9993 21.02 39.3727 21.02C39.786 21.02 40.136 21.1167 40.4227 21.31C40.716 21.4967 40.936 21.76 41.0827 22.1C41.2293 22.44 41.3027 22.84 41.3027 23.3C41.3027 23.3867 41.2993 23.47 41.2927 23.55C41.2927 23.63 41.2827 23.71 41.2627 23.79H37.7627V23.14H40.5627C40.5627 22.6733 40.4593 22.3167 40.2527 22.07C40.0527 21.8167 39.7627 21.69 39.3827 21.69C39.1627 21.69 38.946 21.7533 38.7327 21.88C38.5193 22 38.3427 22.1967 38.2027 22.47C38.0693 22.7433 38.0027 23.1067 38.0027 23.56C38.0027 23.9733 38.0727 24.32 38.2127 24.6C38.3593 24.88 38.556 25.0933 38.8027 25.24C39.0493 25.38 39.3193 25.45 39.6127 25.45C39.846 25.45 40.0627 25.4167 40.2627 25.35C40.4693 25.2833 40.656 25.1933 40.8227 25.08L41.1227 25.62C40.9093 25.7667 40.6693 25.8867 40.4027 25.98C40.1427 26.0733 39.846 26.12 39.5127 26.12ZM42.5036 26V21.14H43.1836L43.2536 21.84H43.2836C43.5169 21.6067 43.7636 21.4133 44.0236 21.26C44.2836 21.1 44.5803 21.02 44.9136 21.02C45.4269 21.02 45.8003 21.1833 46.0336 21.51C46.2736 21.83 46.3936 22.3 46.3936 22.92V26H45.5736V23.03C45.5736 22.57 45.5003 22.24 45.3536 22.04C45.2136 21.8333 44.9803 21.73 44.6536 21.73C44.4069 21.73 44.1836 21.7933 43.9836 21.92C43.7903 22.0467 43.5703 22.2333 43.3236 22.48V26H42.5036ZM49.5023 26.09C48.989 26.09 48.629 25.94 48.4223 25.64C48.2157 25.34 48.1123 24.95 48.1123 24.47V21.81H47.3923V21.19L48.1523 21.14L48.2523 19.58H48.9423V21.14H50.2623V21.81H48.9423V24.48C48.9423 24.7733 48.9957 25.0033 49.1023 25.17C49.2157 25.3367 49.4123 25.42 49.6923 25.42C49.779 25.42 49.869 25.4133 49.9623 25.4C50.0557 25.38 50.149 25.3467 50.2423 25.3L50.4223 25.88C50.2957 25.94 50.1523 25.99 49.9923 26.03C49.8323 26.07 49.669 26.09 49.5023 26.09Z" fill="#929292"/>
<path d="M2.00341 17.0026C1.81418 17.0032 1.62864 16.9502 1.46836 16.8496C1.30809 16.749 1.17964 16.605 1.09796 16.4343C1.01628 16.2636 0.984703 16.0732 1.00691 15.8853C1.02912 15.6973 1.10419 15.5196 1.22341 15.3726L11.1234 5.1726C11.1977 5.08689 11.2989 5.02896 11.4104 5.00834C11.5219 4.98771 11.6371 5.00562 11.7371 5.05911C11.8371 5.1126 11.916 5.1985 11.9607 5.30271C12.0055 5.40692 12.0135 5.52325 11.9834 5.6326L10.0634 11.6526C10.0068 11.8041 9.98778 11.9671 10.008 12.1276C10.0282 12.2881 10.0871 12.4413 10.1795 12.574C10.2719 12.7068 10.3952 12.8151 10.5387 12.8898C10.6822 12.9644 10.8417 13.0031 11.0034 13.0026H18.0034C18.1926 13.002 18.3782 13.055 18.5385 13.1556C18.6987 13.2562 18.8272 13.4002 18.9089 13.5709C18.9905 13.7416 19.0221 13.932 18.9999 14.1199C18.9777 14.3079 18.9026 14.4856 18.7834 14.6326L8.88341 24.8326C8.80915 24.9183 8.70795 24.9762 8.59643 24.9969C8.48491 25.0175 8.36969 24.9996 8.26968 24.9461C8.16967 24.8926 8.09083 24.8067 8.04607 24.7025C8.00132 24.5983 7.99333 24.482 8.02341 24.3726L9.94341 18.3526C10 18.2011 10.019 18.0381 9.99882 17.8776C9.9786 17.7171 9.91975 17.5639 9.82732 17.4312C9.73489 17.2984 9.61164 17.1901 9.46813 17.1154C9.32463 17.0408 9.16516 17.0021 9.00341 17.0026H2.00341Z" stroke="#F5F5F5" stroke-width="2" stroke-linecap="round" stroke-linejoin="round"/>
</svg>
